<svg width="73" height="18" viewBox="0 0 73 18" fill="none" xmlns="http://www.w3.org/2000/svg">
<path d="M0 3.03906V16.2152C1.62512 16.0408 3.12852 15.2721 4.22141 14.0568C5.3143 12.8415 5.91961 11.2652 5.92109 9.63072C5.92086 7.99518 5.31616 6.41742 4.2232 5.20069C3.13024 3.98395 1.62615 3.21409 0 3.03906H0Z" fill="#FA9820"/>
<path d="M13.9252 3.00073C10.271 3.00073 7.30371 5.97475 7.30371 9.62898C7.30473 11.3848 8.0027 13.0683 9.24426 14.3098C10.4858 15.5513 12.1694 16.2491 13.9252 16.25C17.5794 16.25 20.5554 13.2827 20.5554 9.62754C20.5554 5.97235 17.5794 3.00073 13.9252 3.00073ZM15.9581 11.6551C15.5571 12.0579 15.0455 12.3326 14.4882 12.4443C13.9308 12.556 13.3529 12.4996 12.8276 12.2824C12.3024 12.0653 11.8534 11.697 11.5377 11.2243C11.222 10.7517 11.0537 10.1959 11.0542 9.62754H16.803C16.8037 10.0046 16.7293 10.3781 16.5843 10.7262C16.4393 11.0743 16.2264 11.3901 15.9581 11.6551V11.6551Z" fill="#5BAB0A"/>
<path d="M27.6928 17.7257C25.2378 17.7257 23.7734 16.2517 23.7734 13.7831V0H26.601V13.1487C26.601 14.0821 27.1238 15.1705 28.5959 15.1705C28.7392 15.1711 28.8822 15.1607 29.0239 15.1392L29.2992 17.524C28.7731 17.6515 28.2342 17.7192 27.6928 17.7257Z" fill="#0C0C0C"/>
<path d="M33.6356 6.21191H30.8821V17.6805H33.6356V6.21191Z" fill="#0C0C0C"/>
<path d="M50.5459 17.7262C47.9378 17.7262 46.186 16.1121 46.186 13.7095V8.59427H40.6077V12.9547C40.6077 14.3786 41.4679 15.1951 42.9665 15.1951C43.3005 15.1928 43.6333 15.1534 43.9586 15.0776L44.2523 17.421C43.58 17.6193 42.8832 17.722 42.1823 17.7262C39.5741 17.7262 37.8224 16.1121 37.8224 13.7095V8.59427H35.271V6.20658H37.8252V2.69629H40.6019V6.20513H46.1797V2.69629H48.9573V6.20513H52.3174V8.59283H48.9573V12.9547C48.9573 14.3786 49.8176 15.1951 51.3161 15.1951C51.654 15.1936 51.9907 15.1544 52.3198 15.0781L52.613 17.421C51.9417 17.6191 51.2458 17.7218 50.5459 17.7262Z" fill="#0C0C0C"/>
<path d="M57.7398 17.7257C55.2847 17.7257 53.8198 16.2517 53.8198 13.7831V0H56.648V13.1487C56.648 14.0821 57.1703 15.1705 58.6424 15.1705C58.7858 15.1714 58.929 15.1611 59.0708 15.1397L59.3462 17.524C58.82 17.6515 58.2811 17.7192 57.7398 17.7257V17.7257Z" fill="#0C0C0C"/>
<path d="M66.437 18C63.0244 18 60.3513 15.347 60.3513 11.96C60.3513 8.46125 62.958 5.82275 66.4168 5.82275C69.889 5.82275 72.1636 8.20419 72.2107 11.8883C72.2107 12.1116 72.2107 12.3432 72.2016 12.5925H62.8723L62.9392 12.9391C63.2762 14.7068 64.6101 15.8048 66.4143 15.8048C67.6207 15.8048 68.7808 15.3234 69.5174 14.5335L71.1541 15.9016C70.1215 17.1855 68.3038 18 66.437 18ZM66.437 7.8908C64.7521 7.8908 63.4326 8.93541 62.9893 10.6169L62.893 10.9832H69.811L69.7147 10.6164C69.2468 8.85743 68.0828 7.8908 66.437 7.8908V7.8908Z" fill="#0C0C0C"/>
<path d="M32.2762 3.77605C31.8425 3.77605 31.4266 3.60394 31.1197 3.29751C30.8128 2.99109 30.6401 2.5754 30.6395 2.14173C30.6395 1.29641 31.388 0.582031 32.2762 0.582031C33.1311 0.582031 33.8816 1.31085 33.8816 2.14173C33.8816 3.02749 33.1465 3.77605 32.2762 3.77605Z" fill="#0C0C0C"/>
</svg>
